<svg width="14" height="14" viewBox="0 0 14 14" fill="none" xmlns="http://www.w3.org/2000/svg">
<path d="M6.25012 1.25098H1.50012C1.36262 1.25098 1.25012 1.36348 1.25012 1.50098V6.25098C1.25012 6.38848 1.36262 6.50098 1.50012 6.50098H6.25012C6.38762 6.50098 6.50012 6.38848 6.50012 6.25098V1.50098C6.50012 1.36348 6.38762 1.25098 6.25012 1.25098ZM5.43762 5.43848H2.31262V2.31348H5.43762V5.43848ZM12.5001 1.25098H7.75012C7.61262 1.25098 7.50012 1.36348 7.50012 1.50098V6.25098C7.50012 6.38848 7.61262 6.50098 7.75012 6.50098H12.5001C12.6376 6.50098 12.7501 6.38848 12.7501 6.25098V1.50098C12.7501 1.36348 12.6376 1.25098 12.5001 1.25098ZM11.6876 5.43848H8.56262V2.31348H11.6876V5.43848ZM6.25012 7.50098H1.50012C1.36262 7.50098 1.25012 7.61348 1.25012 7.75098V12.501C1.25012 12.6385 1.36262 12.751 1.50012 12.751H6.25012C6.38762 12.751 6.50012 12.6385 6.50012 12.501V7.75098C6.50012 7.61348 6.38762 7.50098 6.25012 7.50098ZM5.43762 11.6885H2.31262V8.56348H5.43762V11.6885ZM12.5001 7.50098H7.75012C7.61262 7.50098 7.50012 7.61348 7.50012 7.75098V12.501C7.50012 12.6385 7.61262 12.751 7.75012 12.751H12.5001C12.6376 12.751 12.7501 12.6385 12.7501 12.501V7.75098C12.7501 7.61348 12.6376 7.50098 12.5001 7.50098ZM11.6876 11.6885H8.56262V8.56348H11.6876V11.6885Z" fill="#32C5FF"/>
</svg>
