<svg width="14" height="14" viewBox="0 0 14 14" fill="none" xmlns="http://www.w3.org/2000/svg">
<path d="M12.8793 9.83418C12.2152 9.44981 11.4059 9.55293 10.8605 10.0342L10.0324 9.55449V7.18418C10.0324 6.93887 9.90117 6.71074 9.68867 6.58887L7.56367 5.36543V4.31699C8.2543 4.08262 8.75117 3.42949 8.75117 2.65918C8.75117 1.69199 7.96836 0.90918 7.00117 0.90918C6.03398 0.90918 5.25117 1.69199 5.25117 2.65918C5.25117 3.42949 5.74805 4.08262 6.43867 4.31699V5.36543L4.31367 6.58887C4.10117 6.71074 3.96992 6.93887 3.96992 7.18418V9.55293L3.1418 10.0326C2.59648 9.55137 1.78555 9.44824 1.12305 9.83262C0.287109 10.317 0.00273456 11.3857 0.482422 12.2217C0.963672 13.0576 2.02773 13.3451 2.86055 12.8623C3.52461 12.4779 3.84023 11.7217 3.69805 11.0061L4.45898 10.5639L6.65586 11.8295C6.76211 11.8904 6.88086 11.9217 6.99961 11.9217C7.11836 11.9217 7.23711 11.8904 7.34336 11.8295L9.53867 10.5654L10.2996 11.0076C10.1574 11.7217 10.4746 12.4795 11.1371 12.8639C11.9699 13.3467 13.0355 13.0607 13.5152 12.2232C13.9965 11.3857 13.7121 10.317 12.8793 9.83418ZM2.36367 11.9967C2.2788 12.0458 2.18505 12.0777 2.08781 12.0905C1.99057 12.1033 1.89177 12.0967 1.79708 12.0711C1.7024 12.0456 1.6137 12.0015 1.5361 11.9416C1.4585 11.8816 1.39353 11.8069 1.34492 11.7217C1.13867 11.3639 1.26055 10.9045 1.61836 10.6982C1.70323 10.6491 1.79698 10.6172 1.89422 10.6044C1.99146 10.5916 2.09026 10.5982 2.18495 10.6238C2.27963 10.6493 2.36833 10.6934 2.44593 10.7534C2.52353 10.8133 2.5885 10.8881 2.63711 10.9732C2.84336 11.3311 2.72148 11.7904 2.36367 11.9967ZM6.24961 2.65918C6.25362 2.46292 6.33439 2.27605 6.47461 2.13866C6.61483 2.00128 6.80331 1.92433 6.99961 1.92433C7.19591 1.92433 7.38439 2.00128 7.52461 2.13866C7.66482 2.27605 7.7456 2.46292 7.74961 2.65918C7.7456 2.85544 7.66482 3.04231 7.52461 3.1797C7.38439 3.31708 7.19591 3.39403 6.99961 3.39403C6.80331 3.39403 6.61483 3.31708 6.47461 3.1797C6.33439 3.04231 6.25362 2.85544 6.24961 2.65918ZM8.90586 9.63106L6.99961 10.7295L5.09336 9.63106V7.43731L6.99961 6.33887L8.90586 7.43731V9.63106ZM12.6543 11.7232C12.448 12.0811 11.9918 12.2045 11.6355 11.9982C11.2793 11.792 11.1559 11.3326 11.3621 10.9748C11.5684 10.617 12.0246 10.4936 12.3809 10.6998C12.7387 10.9061 12.8605 11.3639 12.6543 11.7232Z" fill="#32C5FF"/>
</svg>
