<svg width="8" height="8" viewBox="0 0 8 8" fill="none" xmlns="http://www.w3.org/2000/svg">
<path d="M7.86563 3.10767H5.57991C5.54063 3.10767 5.50848 3.13981 5.50848 3.1791V3.60767C5.50848 3.64696 5.54063 3.6791 5.57991 3.6791H7.86563C7.90491 3.6791 7.93706 3.64696 7.93706 3.60767V3.1791C7.93706 3.13981 7.90491 3.10767 7.86563 3.10767ZM6.6692 4.32196H5.57991C5.54063 4.32196 5.50848 4.3541 5.50848 4.39339V4.82196C5.50848 4.86124 5.54063 4.89339 5.57991 4.89339H6.6692C6.70848 4.89339 6.74063 4.86124 6.74063 4.82196V4.39339C6.74063 4.3541 6.70848 4.32196 6.6692 4.32196ZM3.68973 2.30856H3.30313C3.24777 2.30856 3.20312 2.35321 3.20312 2.40856V4.62285C3.20312 4.65499 3.2183 4.68446 3.2442 4.70321L4.57366 5.67285C4.6183 5.70499 4.6808 5.69607 4.71295 5.65142L4.94241 5.33803V5.33714C4.97455 5.29249 4.96473 5.22999 4.92009 5.19785L3.78884 4.37999V2.40856C3.78973 2.35321 3.7442 2.30856 3.68973 2.30856Z" fill="#32C5FF"/>
<path d="M6.61415 5.44386H6.09808C6.04808 5.44386 6.00076 5.46975 5.97397 5.51261C5.86041 5.69262 5.72715 5.85942 5.57665 6.00993C5.31753 6.2699 5.01035 6.47702 4.67219 6.61975C4.3213 6.76797 3.94897 6.84297 3.56505 6.84297C3.18022 6.84297 2.8079 6.76797 2.4579 6.61975C2.11951 6.4769 1.81505 6.27154 1.55344 6.00993C1.29183 5.74832 1.08647 5.44386 0.943617 5.10547C0.795402 4.75547 0.720402 4.38315 0.720402 3.99832C0.720402 3.6135 0.795402 3.24207 0.943617 2.89118C1.08647 2.55279 1.29183 2.24832 1.55344 1.98672C1.81505 1.72511 2.11951 1.51975 2.4579 1.3769C2.8079 1.22868 3.18112 1.15368 3.56505 1.15368C3.94987 1.15368 4.32219 1.22868 4.67219 1.3769C5.01058 1.51975 5.31504 1.72511 5.57665 1.98672C5.72715 2.13722 5.86041 2.30403 5.97397 2.48404C6.00076 2.5269 6.04808 2.55279 6.09808 2.55279H6.61415C6.67576 2.55279 6.71505 2.4885 6.68737 2.43404C6.10522 1.276 4.92487 0.523324 3.60701 0.508146C1.67755 0.484039 0.0748666 2.0635 0.0712952 3.99118C0.0677237 5.92243 1.6329 7.4894 3.56415 7.4894C4.89897 7.4894 6.09897 6.73404 6.68737 5.56261C6.69364 5.55012 6.69662 5.53622 6.69601 5.52226C6.6954 5.50829 6.69123 5.49471 6.68389 5.48281C6.67655 5.47091 6.66629 5.46108 6.65409 5.45426C6.64188 5.44745 6.62813 5.44387 6.61415 5.44386Z" fill="#32C5FF"/>
</svg>
