<svg width="10" height="10" viewBox="0 0 10 10" fill="none" xmlns="http://www.w3.org/2000/svg">
<path d="M6.9643 2.76576V2.23005C6.9643 2.18094 6.92412 2.14076 6.87502 2.14076H2.5893C2.5402 2.14076 2.50002 2.18094 2.50002 2.23005V2.76576C2.50002 2.81487 2.5402 2.85505 2.5893 2.85505H6.87502C6.92412 2.85505 6.9643 2.81487 6.9643 2.76576ZM2.5893 3.74791C2.5402 3.74791 2.50002 3.78809 2.50002 3.83719V4.37291C2.50002 4.42201 2.5402 4.46219 2.5893 4.46219H4.64287C4.69198 4.46219 4.73216 4.42201 4.73216 4.37291V3.83719C4.73216 3.78809 4.69198 3.74791 4.64287 3.74791H2.5893ZM4.19645 8.79255H1.60716V0.935407H7.85716V4.77469C7.85716 4.8238 7.89734 4.86398 7.94645 4.86398H8.57145C8.62055 4.86398 8.66073 4.8238 8.66073 4.77469V0.488979C8.66073 0.291434 8.50113 0.131836 8.30359 0.131836H1.16073C0.963187 0.131836 0.803589 0.291434 0.803589 0.488979V9.23898C0.803589 9.43652 0.963187 9.59612 1.16073 9.59612H4.19645C4.24555 9.59612 4.28573 9.55594 4.28573 9.50683V8.88183C4.28573 8.83273 4.24555 8.79255 4.19645 8.79255ZM9.17078 9.36733L8.12948 8.32603C8.37837 7.99679 8.5268 7.58608 8.5268 7.14076C8.5268 6.05594 7.64734 5.17648 6.56252 5.17648C5.4777 5.17648 4.59823 6.05594 4.59823 7.14076C4.59823 8.22558 5.4777 9.10505 6.56252 9.10505C6.96207 9.10505 7.33261 8.98563 7.64287 8.78139L8.69979 9.83831C8.71765 9.85617 8.73997 9.86398 8.76229 9.86398C8.78462 9.86398 8.80805 9.85505 8.82479 9.83831L9.17078 9.49233C9.17901 9.48413 9.18554 9.47439 9.19 9.46367C9.19446 9.45294 9.19676 9.44144 9.19676 9.42983C9.19676 9.41821 9.19446 9.40671 9.19 9.39598C9.18554 9.38526 9.17901 9.37552 9.17078 9.36733ZM6.56252 8.39076C5.87167 8.39076 5.31252 7.83161 5.31252 7.14076C5.31252 6.44992 5.87167 5.89076 6.56252 5.89076C7.25337 5.89076 7.81252 6.44992 7.81252 7.14076C7.81252 7.83161 7.25337 8.39076 6.56252 8.39076Z" fill="white"/>
</svg>
