<svg width="14" height="14" viewBox="0 0 14 14" fill="none" xmlns="http://www.w3.org/2000/svg">
<path d="M2.01549 11.4365C2.01549 11.7131 2.23893 11.9365 2.51549 11.9365H11.4842C11.7608 11.9365 11.9842 11.7131 11.9842 11.4365V7.7959C11.9842 5.04277 9.75299 2.81152 6.99986 2.81152C4.24674 2.81152 2.01549 5.04277 2.01549 7.7959V11.4365ZM3.14049 7.7959C3.14049 5.66465 4.86861 3.93652 6.99986 3.93652C9.13111 3.93652 10.8592 5.66465 10.8592 7.7959V10.8115H5.31236V8.13965C5.31236 8.05371 5.24205 7.9834 5.15611 7.9834H4.46861C4.38268 7.9834 4.31236 8.05371 4.31236 8.13965V10.8115H3.14049V7.7959ZM2.38892 3.85059L3.00768 3.23184C3.05611 3.1834 3.05611 3.10371 3.00768 3.05527L1.94674 1.99434C1.92324 1.97107 1.89152 1.95802 1.85846 1.95802C1.82539 1.95802 1.79367 1.97107 1.77018 1.99434L1.15142 2.61309C1.12816 2.63658 1.11511 2.66831 1.11511 2.70137C1.11511 2.73443 1.12816 2.76616 1.15142 2.78965L2.21236 3.85059C2.2608 3.89902 2.33893 3.89902 2.38892 3.85059ZM12.8514 2.61309L12.2327 1.99434C12.2092 1.97107 12.1775 1.95802 12.1444 1.95802C12.1113 1.95802 12.0796 1.97107 12.0561 1.99434L10.9952 3.05527C10.9719 3.07877 10.9589 3.11049 10.9589 3.14356C10.9589 3.17662 10.9719 3.20834 10.9952 3.23184L11.6139 3.85059C11.6624 3.89902 11.7421 3.89902 11.7905 3.85059L12.8514 2.78965C12.8999 2.73965 12.8999 2.66152 12.8514 2.61309ZM11.9999 12.9365H1.99986C1.7233 12.9365 1.49986 13.16 1.49986 13.4365V13.8115C1.49986 13.8803 1.55611 13.9365 1.62486 13.9365H12.3749C12.4436 13.9365 12.4999 13.8803 12.4999 13.8115V13.4365C12.4999 13.16 12.2764 12.9365 11.9999 12.9365ZM6.56236 1.81152H7.43736C7.50611 1.81152 7.56236 1.75527 7.56236 1.68652V0.186523C7.56236 0.117773 7.50611 0.0615234 7.43736 0.0615234H6.56236C6.49361 0.0615234 6.43736 0.117773 6.43736 0.186523V1.68652C6.43736 1.75527 6.49361 1.81152 6.56236 1.81152Z" fill="#32C5FF"/>
</svg>
