<svg width="24" height="24" viewBox="0 0 24 24" fill="none" xmlns="http://www.w3.org/2000/svg">
<path d="M3.27271 19.6363C3.27336 17.9612 3.75613 16.3215 4.66337 14.9133C5.57061 13.505 6.86399 12.3876 8.38907 11.6945C7.81036 11.1885 7.34648 10.5647 7.02851 9.86477C6.71055 9.16487 6.54584 8.4051 6.54544 7.63636C6.54544 6.18973 7.12011 4.80234 8.14304 3.77942C9.16596 2.7565 10.5533 2.18182 12 2.18182C13.4466 2.18182 14.834 2.7565 15.8569 3.77942C16.8799 4.80234 17.4545 6.18973 17.4545 7.63636C17.4541 8.4051 17.2894 9.16487 16.9715 9.86477C16.6535 10.5647 16.1896 11.1885 15.6109 11.6945C17.136 12.3876 18.4294 13.505 19.3366 14.9133C20.2438 16.3215 20.7266 17.9612 20.7273 19.6363C20.7272 19.9256 20.6123 20.2031 20.4077 20.4076C20.2031 20.6122 19.9257 20.7271 19.6364 20.7271C19.3471 20.7271 19.0696 20.6122 18.865 20.4076C18.6604 20.2031 18.5455 19.9256 18.5454 19.6363C18.5454 17.9004 17.8558 16.2355 16.6283 15.008C15.4008 13.7805 13.7359 13.0909 12 13.0909C10.264 13.0909 8.59916 13.7805 7.37165 15.008C6.14413 16.2355 5.45453 17.9004 5.45453 19.6363H15.2727C15.562 19.6364 15.8395 19.7513 16.044 19.9559C16.2486 20.1605 16.3635 20.438 16.3635 20.7272C16.3635 21.0165 16.2486 21.294 16.044 21.4986C15.8395 21.7032 15.562 21.8181 15.2727 21.8182H4.36362C4.07429 21.8182 3.79681 21.7032 3.59223 21.4986C3.38764 21.2941 3.27271 21.0166 3.27271 20.7272V19.6363V19.6363ZM12 4.36364C11.3527 4.36364 10.72 4.55558 10.1818 4.91519C9.64356 5.2748 9.22408 5.78593 8.97638 6.38394C8.72867 6.98196 8.66386 7.63999 8.79014 8.27484C8.91642 8.90968 9.22812 9.49283 9.68581 9.95052C10.1435 10.4082 10.7267 10.7199 11.3615 10.8462C11.9964 10.9725 12.6544 10.9077 13.2524 10.66C13.8504 10.4123 14.3615 9.99278 14.7212 9.45459C15.0808 8.91639 15.2727 8.28364 15.2727 7.63636C15.2727 6.76838 14.9279 5.93595 14.3142 5.3222C13.7004 4.70844 12.868 4.36364 12 4.36364V4.36364Z" fill="white" fill-opacity="0.5"/>
</svg>
