<svg width="24" height="12" viewBox="0 0 24 12" fill="none" xmlns="http://www.w3.org/2000/svg">
<path d="M15.2577 6.14042L15.2577 3.312C15.2578 3.04673 15.1525 2.79229 14.965 2.60464C14.7775 2.417 14.5231 2.31154 14.2579 2.31144C13.9926 2.31135 13.7381 2.41664 13.5505 2.60414C13.3629 2.79165 13.2574 3.04602 13.2573 3.31129L13.2573 6.13971H10.9267C11.0281 4.9087 10.6703 3.68371 9.92226 2.70084C9.17418 1.71796 8.08877 1.04676 6.87522 0.81661C5.66167 0.58646 4.40588 0.813644 3.34989 1.45438C2.29389 2.09511 1.51243 3.10404 1.15612 4.28671C0.799812 5.46938 0.893876 6.74208 1.42018 7.85952C1.94649 8.97696 2.86779 9.86004 4.00651 10.3386C5.14523 10.8171 6.42078 10.8572 7.58731 10.4511C8.75383 10.0451 9.72877 9.22158 10.3242 8.1394L21.8424 8.14153C22.1078 8.14153 22.3623 8.03611 22.5499 7.84847C22.7376 7.66083 22.843 7.40633 22.843 7.14097C22.843 6.87561 22.7376 6.62111 22.5499 6.43347C22.3623 6.24583 22.1078 6.14042 21.8424 6.14042L19.999 6.14112L19.9997 2.81278C19.9998 2.54751 19.8945 2.29307 19.707 2.10543C19.5195 1.91779 19.2651 1.81232 18.9999 1.81223C18.7346 1.81213 18.4802 1.91742 18.2925 2.10493C18.1049 2.29243 17.9994 2.5468 17.9993 2.81207L18 6.14042H15.2577ZM3.46882 8.20092C2.81244 7.54455 2.44369 6.65431 2.44369 5.72605C2.4437 4.7978 2.81244 3.90756 3.46882 3.25119C4.1252 2.59481 5.01544 2.22606 5.94369 2.22606C6.87195 2.22606 7.76219 2.59481 8.41857 3.25118C9.07495 3.90756 9.44369 4.7978 9.44369 5.72605C9.44369 6.65431 9.07495 7.54455 8.41857 8.20092C7.76219 8.8573 6.87195 9.22605 5.94369 9.22605C5.01544 9.22605 4.1252 8.8573 3.46882 8.20092Z" fill="white" fill-opacity="0.5"/>
<path d="M15.5077 5.89042L17.75 5.89042L17.7493 2.81213L17.7493 2.81198C17.7494 2.48041 17.8813 2.16246 18.1158 1.92809C18.3503 1.69371 18.6684 1.56211 19 1.56223C19.3315 1.56234 19.6495 1.69417 19.8839 1.92871C20.1182 2.16325 20.2498 2.48129 20.2497 2.81287L20.2491 5.89103L21.8423 5.89042H21.8424C22.1741 5.89042 22.4922 6.02217 22.7267 6.2567C22.9612 6.49122 23.093 6.8093 23.093 7.14097C23.093 7.47264 22.9612 7.79072 22.7267 8.02525C22.4922 8.25977 22.1741 8.39153 21.8424 8.39153L21.8424 8.39153L10.4696 8.38943C9.83923 9.46187 8.84738 10.2772 7.66949 10.6872C6.44464 11.1136 5.10532 11.0715 3.90966 10.569C2.714 10.0666 1.74664 9.13935 1.19401 7.96604C0.641391 6.79273 0.542623 5.4564 0.916746 4.21459C1.29087 2.97279 2.1114 1.91341 3.2202 1.24064C4.329 0.567875 5.64758 0.329331 6.9218 0.570989C8.19603 0.812648 9.33571 1.5174 10.1212 2.54943C10.8518 3.5094 11.2279 4.68934 11.1911 5.88971L13.0073 5.88971V3.31129V3.3112C13.0074 2.97963 13.1392 2.66168 13.3738 2.4273C13.6083 2.19293 13.9264 2.06133 14.2579 2.06144C14.5895 2.06156 14.9075 2.19339 15.1418 2.42793C15.3762 2.66245 15.5078 2.98045 15.5077 3.312C15.5077 3.31203 15.5077 3.31205 15.5077 3.31208L15.5077 5.89042ZM2.69369 5.72605C2.69369 6.588 3.0361 7.41465 3.6456 8.02415C4.25509 8.63364 5.08174 8.97605 5.94369 8.97605C6.80565 8.97605 7.6323 8.63364 8.24179 8.02415C8.85129 7.41465 9.19369 6.588 9.19369 5.72605C9.19369 4.8641 8.85129 4.03745 8.24179 3.42796C7.6323 2.81847 6.80565 2.47606 5.94369 2.47606C5.08174 2.47606 4.25509 2.81847 3.6456 3.42796C3.03611 4.03745 2.6937 4.8641 2.69369 5.72605Z" stroke="black" stroke-opacity="0.5" stroke-width="0.5"/>
</svg>
