<svg t="1652925227824" class="icon" viewBox="0 0 1024 1024" version="1.1" xmlns="http://www.w3.org/2000/svg" p-id="11743" width="200" height="200"><path d="M981.333333 234.666667a21.266667 21.266667 0 0 1-6.246666 15.086666L691.5 533.333333l283.586667 283.58a21.333333 21.333333 0 0 1-30.173334 30.173334l-298.666666-298.666667a21.333333 21.333333 0 0 1 0-30.173333l298.666666-298.666667A21.333333 21.333333 0 0 1 981.333333 234.666667zM377.753333 518.246667l-298.666666-298.666667a21.333333 21.333333 0 0 0-30.173334 30.173333L332.5 533.333333 48.913333 816.913333a21.333333 21.333333 0 0 0 30.173334 30.173334l298.666666-298.666667a21.333333 21.333333 0 0 0 0-30.173333z" fill="#ffffff" p-id="11744"></path></svg>