<svg width="18" height="24" viewBox="0 0 18 24" fill="none" xmlns="http://www.w3.org/2000/svg">
<path fill-rule="evenodd" clip-rule="evenodd" d="M16.5 0H1.5C0.671562 0 0 0.651212 0 1.45455V22.5455C0 23.3488 0.671562 24 1.5 24H16.5C17.3285 24 18 23.3488 18 22.5455V1.45457C18 0.651239 17.3285 0 16.5 0ZM3.74999 20.3637H14.25C14.6642 20.3637 15 20.0381 15 19.6364V15.2728C15 14.8711 14.6642 14.5455 14.25 14.5455H3.74999C3.33578 14.5455 3 14.8712 3 15.2728V19.6364C3 20.0381 3.33575 20.3637 3.74999 20.3637ZM4.5 16H13.5V18.9091H4.5V16ZM11.25 11.6364C11.6642 11.6364 12 11.3108 12 10.9091V5.09093C12 4.68928 11.6642 4.36365 11.25 4.36365C10.8358 4.36365 10.5 4.68928 10.5 5.09093V10.9091C10.5 11.3108 10.8358 11.6364 11.25 11.6364ZM14.25 11.6364C14.6642 11.6364 15 11.3108 15 10.9091V5.09093C15 4.68928 14.6642 4.36365 14.25 4.36365C13.8358 4.36365 13.5 4.68928 13.5 5.09093V10.9091C13.5 11.3108 13.8358 11.6364 14.25 11.6364Z" fill="url(#paint0_linear_230_1992)"/>
<defs>
<linearGradient id="paint0_linear_230_1992" x1="9" y1="24" x2="9" y2="0" gradientUnits="userSpaceOnUse">
<stop stop-color="white"/>
<stop offset="1" stop-color="#0091FF"/>
</linearGradient>
</defs>
</svg>
