<svg width="22" height="20" viewBox="0 0 22 20" fill="none" xmlns="http://www.w3.org/2000/svg">
<path d="M5.66677 0.400062L18.3334 7.73339C19.1334 8.13339 19.2668 9.06673 18.8668 9.86673L15.8001 15.2001C15.4001 16.0001 14.4668 16.1334 13.6668 15.7334L1.13344 8.40006C0.333437 8.00006 0.06677 7.06673 0.600103 6.26673L3.66677 0.933395C4.06677 0.133395 5.0001 6.1959e-05 5.66677 0.400062ZM20.2001 11.0667C20.4668 10.6667 20.8668 10.5334 21.2668 10.8001C21.6668 11.0667 21.8001 11.4667 21.5334 11.8667L18.8668 16.4001C18.6001 16.8001 18.2001 16.9334 17.8001 16.6667C17.4001 16.4001 17.2668 16.0001 17.5334 15.6001L20.2001 11.0667ZM4.33344 12.6667C4.6001 12.2667 5.0001 12.1334 5.4001 12.4001L12.2001 16.4001C12.6001 16.6667 12.7334 17.0667 12.4668 17.4667C12.3334 17.8667 11.8001 18.0001 11.5334 17.7334L8.73344 16.1334L6.46677 20.0001H1.4001C1.0001 20.0001 0.600103 19.6001 0.600103 19.2001C0.600103 18.8001 1.0001 18.4001 1.4001 18.4001H5.66677L7.4001 15.3334L4.6001 13.7334C4.33344 13.6001 4.2001 13.2001 4.33344 12.6667Z" fill="url(#paint0_linear_230_2035)"/>
<defs>
<linearGradient id="paint0_linear_230_2035" x1="10.9974" y1="20.0001" x2="10.9974" y2="0.181641" gradientUnits="userSpaceOnUse">
<stop stop-color="white"/>
<stop offset="1" stop-color="#0091FF"/>
</linearGradient>
</defs>
</svg>
