{
	"nodes":[{
		"name":"Landscape",
		"mesh":0
	}],
	"asset":{
		"version":"2.0",
		"generator":"Created using the official Cinema 4D glTF Exporter 1.000x284978"
	},
	"scenes":[{
		"nodes":[0]
	}],
	"meshes":[{
		"name":"Landscape",
		"primitives":[{
			"attributes":{
				"POSITION":1,
				"NORMAL":2,
				"TEXCOORD_0":3
			},
			"indices":0,
			"material":0
		}]
	}],
	"accessors":[{
		"bufferView":0,
		"min":[0],
		"type":"SCALAR",
		"componentType":5123,
		"count":54600,
		"byteOffset":0,
		"max":[9291]
	},
	{
		"bufferView":1,
		"min":[-300.0,
		0.0,
		-300.0],
		"type":"VEC3",
		"componentType":5126,
		"count":9292,
		"byteOffset":0,
		"max":[300.0,
		100.0,
		300.0]
	},
	{
		"bufferView":1,
		"min":[-0.9411675333976746,
		0.25311627984046938,
		-0.9395342469215393],
		"type":"VEC3",
		"componentType":5126,
		"count":9292,
		"byteOffset":12,
		"max":[0.9205961227416992,
		1.0,
		0.9610615372657776]
	},
	{
		"bufferView":1,
		"min":[0.0,
		0.0],
		"type":"VEC2",
		"componentType":5126,
		"count":9292,
		"byteOffset":24,
		"max":[1.0,
		1.0]
	}],
	"bufferViews":[{
		"buffer":0,
		"byteOffset":0,
		"byteLength":109200,
		"target":34963
	},
	{
		"buffer":0,
		"byteOffset":109200,
		"byteLength":297344,
		"target":34962,
		"byteStride":32
	}],
	"buffers":[{
		"uri":"data:application/octet-stream;base64,",
		"byteLength":406544
	}],
	"materials":[{
		"pbrMetallicRoughness":{
			"baseColorFactor":[1.0,
			1.0,
			1.0,
			1.0],
			"metallicFactor":1.0,
			"roughnessFactor":1.0
		},
		"emissiveFactor":[0.0,
		0.0,
		0.0],
		"alphaMode":"OPAQUE",
		"doubleSided":true,
		"name":""
	}]
}